<svg width="160" height="40" viewBox="0 0 160 40" fill="none" xmlns="http://www.w3.org/2000/svg">
  <!-- Green leaf symbol -->
  <path d="M12 8C7.58172 8 4 11.5817 4 16C4 20.4183 7.58172 24 12 24H16C20.4183 24 24 20.4183 24 16C24 11.5817 20.4183 8 16 8H12Z" fill="#16A34A"/>
  <path d="M11 16A5 5 0 0 1 16 11C18.7614 11 21 13.2386 21 16C21 18.7614 18.7614 21 16 21H11V16Z" fill="white"/>
  <path d="M11 16C11 14.5 13 11 16 11" stroke="#16A34A" stroke-width="1.5"/>
  
  <!-- GreenTouch text -->
  <path d="M30 15.5C30 13.567 31.567 12 33.5 12H39.5C41.433 12 43 13.567 43 15.5V24H40V15.5C40 15.2239 39.7761 15 39.5 15H33.5C33.2239 15 33 15.2239 33 15.5V24.5C33 24.7761 33.2239 25 33.5 25H43V28H33.5C31.567 28 30 26.433 30 24.5V15.5Z" fill="#16A34A"/>
  <path d="M45 12H57V15H48V18.5H55V21.5H48V25H57V28H45V12Z" fill="#16A34A"/>
  <path d="M59 12H62V20L69 12H73L66 19.5L73 28H69L64 22L62 24.5V28H59V12Z" fill="#16A34A"/>
  <path d="M75 12H83.5C85.433 12 87 13.567 87 15.5V24.5C87 26.433 85.433 28 83.5 28H75V12ZM78 15V25H83.5C83.7761 25 84 24.7761 84 24.5V15.5C84 15.2239 83.7761 15 83.5 15H78Z" fill="#16A34A"/>
  <path d="M96 12H99V15H96V28H93V15H90V12H93H96Z" fill="#16A34A"/>
  <path d="M100 15.5C100 13.567 101.567 12 103.5 12H112V15H103.5C103.224 15 103 15.2239 103 15.5V19.5C103 19.7761 103.224 20 103.5 20H109.5C111.433 20 113 21.567 113 23.5V24.5C113 26.433 111.433 28 109.5 28H101V25H109.5C109.776 25 110 24.7761 110 24.5V23.5C110 23.2239 109.776 23 109.5 23H103.5C101.567 23 100 21.433 100 19.5V15.5Z" fill="#16A34A"/>
  <path d="M121 15.5C121 15.2239 120.776 15 120.5 15H115V12H120.5C122.433 12 124 13.567 124 15.5V24.5C124 26.433 122.433 28 120.5 28H115C113.067 28 111.5 26.433 111.5 24.5V15.5C111.5 13.567 113.067 12 115 12V15C114.724 15 114.5 15.2239 114.5 15.5V24.5C114.5 24.7761 114.724 25 115 25H120.5C120.776 25 121 24.7761 121 24.5V15.5Z" fill="#16A34A"/>
  <path d="M131 28L126 12H129.5L132.5 23L135.5 12H139.5L142.5 23L145.5 12H149L144 28H140.5L137.5 17L134.5 28H131Z" fill="#16A34A"/>
</svg> 